<svg height="512" viewBox="0 0 64 64" width="512" xmlns="http://www.w3.org/2000/svg"><g id="Icons"><g><g><path d="m18 26h34v-14h-48v32h14z" fill="#f0f0f0"/></g><g><path d="m12 16h32v10h-32z" fill="#d2d2d2"/></g><g><path d="m12 28h6v2h-6z" fill="#d2d2d2"/></g><g><path d="m12 32h6v2h-6z" fill="#d2d2d2"/></g><g><path d="m12 36h6v2h-6z" fill="#d2d2d2"/></g><g><path d="m4 4h48v8h-48z" fill="#64c8f0"/></g><g><path d="m4 12h4v32h-4z" fill="#d2d2d2"/></g><g><path d="m4 4h4v8h-4z" fill="#46aad2"/></g><g><path d="m8 8h2v2h-2z" fill="#505050"/></g><g><path d="m12 8h2v2h-2z" fill="#505050"/></g><g><path d="m16 8h2v2h-2z" fill="#505050"/></g><g><path d="m42 52c0-5.514 4.486-10 10-10 3.273 0 6.175 1.588 8 4.026v-10.026h-40v24h26.026c-2.438-1.825-4.026-4.727-4.026-8z" fill="#f0f0f0"/></g><g><path d="m20 28h40v8h-40z" fill="#fa6450"/></g><g><path d="m20 36h4v24h-4z" fill="#d2d2d2"/></g><g><path d="m20 28h4v8h-4z" fill="#dc4632"/></g><g><path d="m24 32h2v2h-2z" fill="#505050"/></g><g><path d="m28 32h2v2h-2z" fill="#505050"/></g><g><path d="m32 32h2v2h-2z" fill="#505050"/></g><g><path d="m52 42v-2h-24v6h16.019c1.827-2.423 4.72-4 7.981-4z" fill="#d2d2d2"/></g><g><path d="m28 48v2h14.202c.142-.696.36-1.364.639-2z" fill="#d2d2d2"/></g><g><path d="m28 52v2h14.202c-.132-.646-.202-1.315-.202-2z" fill="#d2d2d2"/></g><g><circle cx="52" cy="52" fill="#fab400" r="8"/></g><g><path d="m45.983 52c0-4.082 3.059-7.443 7.009-7.932-.326-.041-.656-.068-.992-.068-4.418 0-8 3.582-8 8s3.582 8 8 8c.336 0 .666-.027.991-.068-3.949-.489-7.008-3.85-7.008-7.932z" fill="#dc9600"/></g><g><path d="m56.243 54.828-2.829-2.828 2.829-2.828-1.415-1.415-2.828 2.829-2.828-2.829-1.415 1.415 2.829 2.828-2.829 2.828 1.415 1.415 2.828-2.829 2.828 2.829z" fill="#f0f0f0"/></g></g></g></svg>